# xmcd
#
# Track frame offsets:
#	150
#	18233
#	33639
#	50583
#	65398
#	79826
#	99338
#	114933
#	132163
#	158481
#	174572
#	191652
#	208689
#	222932
#	237539
#	251192
#	270607
#	284348
#
# Disc length: 4031 seconds
#
# Revision: 0
# Processed by: cddbd v1.4PL0 Copyright (c) Steve Scherf et al.
# Submitted via: audiograbber 1.82.02
#
DISCID=030fbd12
DTITLE=Various Artist - Hott Country 088
DYEAR=2003
DGENRE=Country
TTITLE0=Brooks and Dunn - Red Dirt Road
TTITLE1=Toby Keith - Beer For My Horses
TTITLE2=Brad Paisley - Celebrity
TTITLE3=Goerge Strait - Tell Me Something Bad About Tulsa
TTITLE4=Kenny Rogers - I'm Missing You
TTITLE5=Rachel Proctor - If That Chair Could Talk
TTITLE6=Blake Shelton - Heavy Liftin'
TTITLE7=Dierks Bentley - What Was I Thinkin'
TTITLE8=Bering Strait - Bearing Strait
TTITLE9=Deanna Carter - I'm Just A Girl
TTITLE10=Clay Walker - A Few Questions
TTITLE11=Jimmy Wayne - Stay Gone
TTITLE12=Rachel Proctor - Days Like This
TTITLE13=Jeannie Kendall/ Alan Jackson - Timeless And True Love
TTITLE14=McHayes - It Doesn't Mean I Don't Love You
TTITLE15=Warren Brothers - Hey Mr. President
TTITLE16=Kevin Denney - It'll Go Away
TTITLE17=Bonnie Raitt - Time Of Our Lives
EXTD=
EXTT0=
EXTT1=
EXTT2=
EXTT3=
EXTT4=
EXTT5=
EXTT6=
EXTT7=
EXTT8=
EXTT9=
EXTT10=
EXTT11=
EXTT12=
EXTT13=
EXTT14=
EXTT15=
EXTT16=
EXTT17=
PLAYORDER=
